# xmcd
#
# Track frame offsets: 
#        150
#        14537
#        31990
#        52481
#        66379
#        83929
#        101587
#        119132
#        138511
#        155080
#        169955
#        182852
#        203775
#        224788
#        252674
#
# Disc length: 3580 seconds
#
# Revision: 0
# Processed by: cddbd v1.5.2PL0 Copyright (c) Steve Scherf et al.
# Submitted via: ExactAudioCopyFreeDBPlugin 1.0
#
DISCID=fa0dfa0f
DTITLE=Secret Garden - Magic Grace-奇異恩典 CD1
DYEAR=1900
DGENRE=Pop
TTITLE0=Nocturne-夜曲
TTITLE1=Pastorale-田园曲
TTITLE2=Prayer-祈禱者
TTITLE3=Sigma-神秘曲
TTITLE4=Celebration-慶典
TTITLE5=Belonging-珍愛
TTITLE6=Awakening-蘇醒
TTITLE7=HymnToHope-希望禮贊
TTITLE8=SilentWings-無聲的飛翔
TTITLE9=ThePromise-承諾
TTITLE10=Adagio-柔板
TTITLE11=Dreamcatcher-追夢人
TTITLE12=SometimesWhenItRain-下雨的時候
TTITLE13=DawnOfANewCentury-新世紀的晨曦
TTITLE14=Escape-遁世
EXTD=
EXTT0=
EXTT1=
EXTT2=
EXTT3=
EXTT4=
EXTT5=
EXTT6=
EXTT7=
EXTT8=
EXTT9=
EXTT10=
EXTT11=
EXTT12=
EXTT13=
EXTT14=
PLAYORDER=
